<svg width="14" height="14" viewBox="0 0 22 19" fill="none" xmlns="http://www.w3.org/2000/svg">
<path d="M1 10.177L2.9718 8.37168L3.46475 7.89215M18.2533 7.66814L11.8336 1.6496C11.4417 1.28215 10.8338 1.27561 10.434 1.63455L3.46475 7.89215M18.2533 7.66814L18.3166 16.9578C18.3205 17.5322 17.8559 18 17.2814 18H14.5637C13.992 18 13.5285 17.5365 13.5285 16.9648V13.3184C13.5285 12.7467 13.0651 12.2832 12.4933 12.2832H9.39151C8.8198 12.2832 8.35633 12.7467 8.35633 13.3184V16.9648C8.35633 17.5365 7.89286 18 7.32115 18H4.49994C3.92822 18 3.46475 17.5365 3.46475 16.9648V7.89215M18.2533 7.66814L21 10.177"  stroke-width="1.47883" stroke-linecap="round"/>
</svg>
