<svg width="24" height="24" viewBox="0 0 24 24" fill="none" xmlns="http://www.w3.org/2000/svg">
<path fill-rule="evenodd" clip-rule="evenodd" d="M22.0468 7.1181L21.2994 5.8819C20.6671 4.8359 19.2659 4.47505 18.167 5.07524V5.07524C17.6439 5.36895 17.0198 5.45229 16.4321 5.30686C15.8445 5.16143 15.3417 4.79918 15.0346 4.3C14.8371 3.98271 14.7309 3.62132 14.7269 3.25238V3.25238C14.7447 2.66087 14.5106 2.08767 14.0779 1.66336C13.6451 1.23905 13.0506 0.999756 12.4298 1H10.9241C10.3159 0.999993 9.73272 1.23101 9.30367 1.64193C8.87463 2.05285 8.63507 2.60979 8.63799 3.18952V3.18952C8.61997 4.38647 7.59679 5.34774 6.34092 5.34762C5.95385 5.34379 5.57471 5.2426 5.24184 5.05429V5.05429C4.14295 4.4541 2.74174 4.81495 2.10946 5.86095L1.30713 7.1181C0.675614 8.16279 1.04903 9.49755 2.14243 10.1038V10.1038C2.85316 10.4949 3.29098 11.2178 3.29098 12C3.29098 12.7822 2.85316 13.5051 2.14243 13.8962V13.8962C1.05042 14.4984 0.676595 15.8299 1.30713 16.8714V16.8714L2.06549 18.1181C2.36174 18.6276 2.8588 19.0036 3.44667 19.1629C4.03454 19.3221 4.66476 19.2515 5.19787 18.9667V18.9667C5.72195 18.6752 6.34647 18.5953 6.93261 18.7448C7.51876 18.8943 8.01796 19.2608 8.31926 19.7629C8.51682 20.0801 8.62298 20.4415 8.627 20.8105V20.8105C8.627 22.0197 9.65544 23 10.9241 23H12.4298C13.6942 23 14.7208 22.0261 14.7269 20.821V20.821C14.724 20.2394 14.965 19.6809 15.3964 19.2696C15.8279 18.8584 16.4139 18.6286 17.024 18.6314C17.4101 18.6413 17.7877 18.7421 18.1231 18.9248V18.9248C19.2191 19.5267 20.6194 19.1708 21.2554 18.1286V18.1286L22.0468 16.8714C22.3531 16.3703 22.4371 15.7734 22.2804 15.213C22.1236 14.6526 21.7389 14.1749 21.2115 13.8857V13.8857C20.684 13.5965 20.2994 13.1188 20.1426 12.5584C19.9858 11.998 20.0699 11.4011 20.3762 10.9C20.5754 10.5685 20.8637 10.2937 21.2115 10.1038V10.1038C22.2983 9.49788 22.6709 8.17092 22.0468 7.12857V7.12857V7.1181Z" stroke="white" stroke-width="1.71679" stroke-linecap="round" stroke-linejoin="round"/>
<path fill-rule="evenodd" clip-rule="evenodd" d="M11.6829 15.0171C13.4311 15.0171 14.8483 13.6663 14.8483 12C14.8483 10.3337 13.4311 8.98285 11.6829 8.98285C9.93475 8.98285 8.51758 10.3337 8.51758 12C8.51758 13.6663 9.93475 15.0171 11.6829 15.0171Z" stroke="white" stroke-width="1.71679" stroke-linecap="round" stroke-linejoin="round"/>
</svg>
